<svg width="25" height="25" viewBox="0 0 25 25" fill="none" xmlns="http://www.w3.org/2000/svg">
<path d="M7.33595 19.6317C6.26143 19.6208 5.23198 19.1984 4.45941 18.4516C3.68685 17.7047 3.22995 16.6901 3.18273 15.6165C3.13551 14.543 3.50156 13.4922 4.20556 12.6804C4.90956 11.8685 5.89796 11.3574 6.96736 11.2522C6.6637 10.0157 6.86367 8.70922 7.52327 7.62019C8.18287 6.53115 9.24807 5.74874 10.4845 5.44508C11.721 5.14142 13.0275 5.34139 14.1165 6.00099C15.2055 6.66059 15.988 7.72579 16.2916 8.96226C17.0262 8.8666 17.7727 8.92312 18.4845 9.12829C19.1963 9.33347 19.8583 9.68292 20.4293 10.1549C21.0003 10.6269 21.4681 11.2113 21.8036 11.8718C22.139 12.5323 22.335 13.2548 22.3793 13.9943C22.4235 14.7338 22.3152 15.4745 22.0609 16.1703C21.8067 16.8661 21.412 17.5022 20.9014 18.0389C20.3908 18.5757 19.7752 19.0016 19.093 19.2903C18.4107 19.5789 17.6763 19.7241 16.9356 19.7168L7.33595 19.6317Z" fill="#296399"/>
</svg>
