<svg width="16" height="17" viewBox="0 0 16 17" fill="none" xmlns="http://www.w3.org/2000/svg">
<path d="M15.4842 8.02337L12.1439 7.70429L12.1087 7.51319L15.1141 5.9279C15.1998 5.88313 15.2668 5.80586 15.3018 5.71123C15.3369 5.6166 15.3376 5.51145 15.3037 5.4164C15.2687 5.3212 15.2008 5.24391 15.1141 5.20034C15.0273 5.15677 14.9282 5.15021 14.837 5.182L11.6267 6.21281C11.5842 6.14006 11.5417 6.06074 11.4992 5.99457L13.6881 3.28358C13.7543 3.21179 13.7917 3.11541 13.7926 3.01477C13.7935 2.91412 13.7578 2.81709 13.6929 2.74413C13.6247 2.67316 13.5333 2.63306 13.4379 2.63222C13.3425 2.63137 13.2505 2.66984 13.181 2.7396L10.6071 5.0261L10.4538 4.91948L11.5326 1.52758C11.5625 1.43252 11.5581 1.32897 11.5201 1.23731C11.4821 1.14565 11.4132 1.07252 11.3272 1.03232C11.2413 0.989877 11.1433 0.9842 11.0535 1.01645C10.9638 1.0487 10.889 1.11643 10.8445 1.20568L9.25603 4.36279L8.98545 4.27486L8.73953 0.706755C8.73267 0.606055 8.69038 0.511856 8.62125 0.442955C8.55212 0.374053 8.46117 0.335516 8.36651 0.335017C8.27225 0.335332 8.18143 0.372766 8.11139 0.440145C8.04135 0.507524 7.99712 0.600099 7.98712 0.70009L7.67787 4.26328L7.49885 4.29459L6.01595 1.09054C5.97302 1.00037 5.90028 0.930483 5.81169 0.89444C5.7231 0.858396 5.62513 0.858777 5.53671 0.895497C5.44883 0.932953 5.37728 1.00433 5.33647 1.09542C5.29565 1.1865 5.28851 1.2906 5.31642 1.38699L6.27915 4.8167L6.07435 4.95305L3.54137 2.62131C3.4724 2.55179 3.38144 2.5127 3.2865 2.51186C3.19156 2.51102 3.09976 2.54849 3.02957 2.61677C2.96336 2.68856 2.92583 2.78495 2.92494 2.8856C2.92405 2.98624 2.95987 3.08328 3.02479 3.15623L5.17158 5.90561C5.13267 5.95747 5.09705 6.01211 5.06517 6.06915L1.89276 4.91601C1.80201 4.88574 1.70395 4.89204 1.61718 4.93371C1.53042 4.97538 1.46098 5.04952 1.42199 5.14211C1.38407 5.23479 1.38039 5.33928 1.41156 5.43469C1.44274 5.53011 1.50648 5.60941 1.59015 5.65677L4.54818 7.34752C4.52244 7.43107 4.50306 7.51671 4.49035 7.60359L1.14505 7.86344C1.0506 7.87385 0.962868 7.92078 0.898573 7.99536C0.834277 8.06994 0.797832 8.16701 0.796016 8.26826C0.796203 8.3688 0.831109 8.46569 0.894197 8.54032C0.957285 8.61495 1.04415 8.66207 1.13788 8.67262L4.47805 8.9917L4.51334 9.18939L1.50777 10.7747C1.4216 10.8169 1.3543 10.8933 1.32006 10.9876C1.28582 11.0819 1.28732 11.1867 1.3244 11.2796C1.35825 11.3745 1.42465 11.4522 1.5101 11.4969C1.59556 11.5416 1.69371 11.5501 1.78486 11.5206L4.99535 10.4832C5.03486 10.5594 5.07955 10.6323 5.1291 10.7015L2.93394 13.4124C2.86869 13.4861 2.83183 13.5833 2.83093 13.6845C2.83004 13.7858 2.86517 13.8836 2.9291 13.9584C2.99874 14.0266 3.08961 14.0647 3.18415 14.0656C3.27868 14.0664 3.37007 14.0298 3.4409 13.963L6.01484 11.6699L6.16804 11.7831L5.08952 15.1684C5.05922 15.2644 5.06345 15.3689 5.10138 15.4617C5.13932 15.5544 5.20817 15.6288 5.29469 15.6702C5.38154 15.7106 5.47948 15.7145 5.56896 15.6811C5.65845 15.6477 5.73291 15.5796 5.77741 15.4903L7.3659 12.3332C7.44454 12.3577 7.52471 12.376 7.6059 12.388L7.85197 15.9561C7.85874 16.0574 7.90066 16.1523 7.96963 16.2223C8.03859 16.2923 8.12957 16.3322 8.22478 16.3344C8.32043 16.3355 8.41286 16.2976 8.48337 16.2286C8.55387 16.1595 8.59721 16.0645 8.60438 15.9627L8.91348 12.3995L9.09265 12.3682L10.5754 15.5723C10.6172 15.6635 10.6899 15.7344 10.7789 15.7706C10.8679 15.8068 10.9665 15.8056 11.0548 15.7673C11.1436 15.7312 11.216 15.66 11.257 15.5685C11.298 15.477 11.3045 15.3722 11.2751 15.2758L10.3123 11.8527L10.5172 11.7098L13.0499 14.0481C13.1189 14.1176 13.21 14.1567 13.3049 14.1575C13.3999 14.1584 13.4917 14.1209 13.5619 14.0526C13.6271 13.979 13.6638 13.8818 13.6647 13.7805C13.6656 13.6792 13.6306 13.5814 13.5667 13.5066L11.4261 10.7573L11.5261 10.6002L14.7048 11.7469C14.7945 11.78 14.8929 11.775 14.9794 11.7329C15.0659 11.6908 15.1339 11.6148 15.1694 11.5207C15.2073 11.428 15.2111 11.3235 15.1799 11.2281C15.1488 11.1327 15.085 11.0534 15.0014 11.006L12.0494 9.32194C12.0502 9.23642 12.088 9.15122 12.1012 9.05923L15.4465 8.79937C15.5404 8.79048 15.6279 8.74492 15.6923 8.67142C15.7567 8.59792 15.7935 8.50166 15.7954 8.40113C15.7896 8.31042 15.756 8.2243 15.6997 8.15604C15.6435 8.08777 15.5678 8.04115 15.4842 8.02337ZM8.31596 10.2231C7.8552 10.2173 7.41545 10.0174 7.09271 9.66695C6.76997 9.31652 6.59039 8.84402 6.59312 8.35251C6.59748 7.86048 6.78488 7.39024 7.11413 7.04521C7.44338 6.70018 7.88756 6.50865 8.34883 6.51273C8.8101 6.51682 9.25082 6.7162 9.5739 7.067C9.89699 7.41781 10.076 7.8913 10.0717 8.38333C10.0673 8.87535 9.87991 9.34561 9.55066 9.69064C9.22141 10.0357 8.77723 10.2272 8.31596 10.2231Z" fill="#296399"/>
</svg>
