<svg width="20" height="19" viewBox="0 0 20 19" fill="none" xmlns="http://www.w3.org/2000/svg">
<path d="M8.3371 7.23945L1.878 7.18223C1.73914 7.181 1.60198 7.15232 1.47425 7.09786C1.34652 7.0434 1.23081 6.96422 1.13379 6.86488C1.03678 6.76553 0.960237 6.64798 0.908819 6.519C0.8574 6.39001 0.832113 6.25214 0.834179 6.11329C0.834573 5.97444 0.862299 5.83703 0.915994 5.70898C0.969689 5.58092 1.0483 5.46474 1.14706 5.36712C1.24582 5.26952 1.36292 5.19239 1.4916 5.1402C1.62027 5.08801 1.75792 5.06179 1.89677 5.06302L8.35587 5.12024C8.66945 5.12302 8.97144 5.00154 9.19573 4.78237C9.42002 4.5632 9.54845 4.26415 9.5529 3.95058C9.55569 3.6359 9.43327 3.33302 9.21272 3.10854C8.99218 2.88405 8.69151 2.75636 8.37683 2.75357L6.4227 2.73626C6.14168 2.73377 5.87312 2.61975 5.67617 2.41927C5.47922 2.2188 5.36989 1.94831 5.37238 1.66728C5.37487 1.38626 5.48897 1.11773 5.68945 0.920772C5.88992 0.723818 6.16045 0.614566 6.44147 0.617056L8.39561 0.634367C9.27122 0.643805 10.1074 1.00026 10.7205 1.6255C11.3336 2.25074 11.6736 3.09367 11.6658 3.9693C11.6564 4.84382 11.3007 5.67897 10.6768 6.29188C10.053 6.90479 9.21164 7.24552 8.3371 7.23945Z" fill="#296399"/>
<path d="M16.051 10.3599L1.85097 10.2341C1.71211 10.2329 1.57495 10.2042 1.44722 10.1498C1.31949 10.0953 1.20378 10.0161 1.10676 9.91677C1.00975 9.81743 0.933207 9.69988 0.881789 9.57089C0.830371 9.44191 0.805083 9.30403 0.80715 9.16519C0.807543 9.02633 0.83527 8.88893 0.888965 8.76087C0.94266 8.63282 1.02127 8.51664 1.12003 8.41903C1.21879 8.32142 1.33589 8.2443 1.46457 8.19211C1.59324 8.13992 1.73089 8.11368 1.86974 8.11492L16.0698 8.24071C16.4204 8.24382 16.7578 8.10795 17.0085 7.86284C17.2592 7.61772 17.4027 7.2833 17.4075 6.93271C17.4089 6.58209 17.2714 6.24518 17.0251 5.99566C16.7787 5.74614 16.4438 5.60432 16.0932 5.60122L14.2784 5.58514C13.9974 5.58265 13.7289 5.46862 13.5319 5.26815C13.335 5.06767 13.2258 4.79716 13.2283 4.51614C13.2295 4.37699 13.258 4.23945 13.3124 4.11137C13.3668 3.98328 13.4459 3.86717 13.5452 3.76965C13.6445 3.67213 13.7619 3.5951 13.891 3.54299C14.02 3.49088 14.1581 3.4647 14.2972 3.46593L16.1435 3.48229C16.5951 3.48629 17.0416 3.5792 17.4573 3.75572C17.873 3.93224 18.2498 4.1889 18.5663 4.51107C18.8828 4.83323 19.1329 5.2146 19.302 5.63336C19.4711 6.05212 19.5561 6.5001 19.5521 6.95171C19.5481 7.406 19.454 7.85499 19.2755 8.27276C19.097 8.69053 18.8375 9.06878 18.512 9.38567C18.1865 9.70257 17.8013 9.95183 17.3789 10.119C16.9565 10.2863 16.5052 10.3681 16.051 10.3599Z" fill="#296399"/>
<path d="M10.2541 17.9231L7.57017 17.8993C7.28915 17.8968 7.0206 17.7828 6.82364 17.5823C6.62669 17.3819 6.51736 17.1114 6.51985 16.8303C6.52108 16.6915 6.54983 16.5543 6.60429 16.4265C6.65876 16.2988 6.73786 16.1831 6.83721 16.0861C6.93655 15.9891 7.05413 15.9126 7.18312 15.8612C7.3121 15.8098 7.45005 15.7844 7.58889 15.7865L10.2728 15.8102C10.5965 15.8114 10.9074 15.6844 11.1377 15.457C11.368 15.2295 11.4989 14.9201 11.5018 14.5965C11.5047 14.2734 11.3791 13.9624 11.1527 13.7319C10.9263 13.5014 10.6175 13.3703 10.2944 13.3675L1.82387 13.2924C1.54453 13.2899 1.27759 13.1766 1.08182 12.9773C0.886045 12.778 0.777526 12.5092 0.78 12.2298C0.780394 12.091 0.80812 11.9536 0.861815 11.8255C0.915511 11.6974 0.994123 11.5813 1.09288 11.4837C1.19164 11.3861 1.30874 11.3089 1.43742 11.2567C1.56609 11.2045 1.70374 11.1783 1.84259 11.1795L10.3131 11.2546C11.1972 11.2624 12.042 11.6207 12.6622 12.2507C13.2823 12.8808 13.6272 13.7312 13.6211 14.6152C13.6116 15.4999 13.2518 16.3447 12.6207 16.9646C11.9896 17.5846 11.1387 17.9293 10.2541 17.9231Z" fill="#296399"/>
</svg>
